<svg width="522" height="347" viewBox="0 0 522 347" fill="none" xmlns="http://www.w3.org/2000/svg">
<g filter="url(#filter0_d_2054_193)">
<path d="M66.6466 166.357H44.7934C42.2905 166.357 40.2615 168.372 40.2615 170.857V302.501C40.2615 304.985 42.2905 307 44.7934 307H66.6466C69.1495 307 71.1785 304.985 71.1785 302.501V170.857C71.1785 168.372 69.1495 166.357 66.6466 166.357Z" fill="#C9C4F7"/>
<path d="M128.481 166.357H106.628C104.125 166.357 102.096 168.372 102.096 170.857V302.501C102.096 304.985 104.125 307 106.628 307H128.481C130.984 307 133.013 304.985 133.013 302.501V170.857C133.013 168.372 130.984 166.357 128.481 166.357Z" fill="#726AA8"/>
<path d="M97.5636 166.357H75.7104C73.2075 166.357 71.1785 168.372 71.1785 170.857V302.501C71.1785 304.985 73.2075 307 75.7104 307H97.5636C100.067 307 102.096 304.985 102.096 302.501V170.857C102.096 168.372 100.067 166.357 97.5636 166.357Z" fill="#5B5893"/>
<path d="M159.398 166.357H137.545C135.042 166.357 133.013 168.372 133.013 170.857V302.501C133.013 304.985 135.042 307 137.545 307H159.398C161.901 307 163.93 304.985 163.93 302.501V170.857C163.93 168.372 161.901 166.357 159.398 166.357Z" fill="#4A4089"/>
<path d="M92.094 50.2202C92.094 44.6974 96.5711 40.2202 102.094 40.2202H420.905C426.428 40.2202 430.905 44.6974 430.905 50.2202V213.687H92.094V50.2202Z" fill="#796FB5"/>
<path d="M99.9263 58.6323C99.9263 53.1095 104.403 48.6323 109.926 48.6323H413.073C418.596 48.6323 423.073 53.1095 423.073 58.6323V195.274C423.073 200.797 418.596 205.274 413.073 205.274H109.926C104.403 205.274 99.9263 200.797 99.9263 195.274V58.6323Z" fill="url(#paint0_linear_2054_193)"/>
<path d="M430.905 233.717C430.905 244.763 421.95 253.717 410.905 253.717L112.094 253.717C101.048 253.717 92.094 244.763 92.094 233.717L92.094 213.687L430.905 213.687L430.905 233.717Z" fill="#D2CEFE"/>
<rect x="230.187" y="253.717" width="62.6255" height="40.5104" fill="url(#paint1_linear_2054_193)"/>
<rect x="212.556" y="294.228" width="97.8876" height="12.5519" rx="5" fill="#ABA0E5"/>
<rect x="351.248" y="239.296" width="129.776" height="67.4831" rx="25" fill="url(#paint2_linear_2054_193)"/>
<rect x="353.898" y="241.531" width="124.476" height="47.2495" rx="23.6248" fill="black"/>
<path d="M417.477 256.694H417.467L416.136 255.082L414.806 256.694H414.796V258.559H414.806L416.136 260.172L417.467 258.559H417.477V256.694Z" fill="#DCDFFF"/>
<path d="M417.477 271.249L417.467 271.239L416.136 269.626L414.806 271.239L414.796 271.249V273.103H414.806L416.136 274.726L417.467 273.103H417.477V271.249Z" fill="#DCDFFF"/>
<path d="M380.173 253.943L379.034 252.804L377.896 253.943V253.953V263.73L379.034 264.858L380.163 263.73H380.173V253.953V253.943Z" fill="#DCDFFF"/>
<path d="M392.682 253.943L391.553 252.804L390.414 253.943V253.953V263.73H390.424L391.543 264.858L392.682 263.73H392.692V253.953V253.943H392.682Z" fill="#DCDFFF"/>
<path d="M390.212 253.61L391.351 252.471L390.212 251.332H390.202H380.425L379.286 252.471L380.425 253.6V253.61H390.202H390.212Z" fill="#DCDFFF"/>
<path d="M390.374 278.536L391.432 277.478L390.374 276.419V276.409H390.364H381.232V276.419L380.174 277.467L381.232 278.526V278.536H390.364H390.374Z" fill="#DCDFFF"/>
<path d="M380.173 266.633L379.034 265.494L377.896 266.633V276.42L379.034 277.548L380.163 276.42H380.173V266.633Z" fill="#DCDFFF"/>
<path d="M392.682 266.995L391.634 265.937L390.565 266.995V267.005V276.137H390.575L391.624 277.196L392.682 276.137H392.692V267.005V266.995H392.682Z" fill="#DCDFFF"/>
<path opacity="0.4" d="M390.212 266.29L391.351 265.161L390.212 264.022H390.202H380.425V264.032L379.286 265.151L380.425 266.29V266.3H390.202H390.212V266.29Z" fill="#DCDFFF"/>
<path d="M397.5 253.943L396.371 252.804L395.232 253.943V253.953V263.73H395.242L396.361 264.858L397.5 263.73H397.51V253.953V253.943H397.5Z" fill="#DCDFFF"/>
<path d="M410.018 253.943L408.889 252.804L407.75 253.943V253.953V263.73H407.761L408.879 264.858L410.018 263.73H410.028V253.953V253.943H410.018Z" fill="#DCDFFF"/>
<path d="M407.539 253.61L408.678 252.471L407.539 251.332H397.762L396.623 252.471L397.762 253.6V253.61H407.539Z" fill="#DCDFFF"/>
<path d="M407.539 278.98L408.678 277.851L407.539 276.712V276.702H397.762V276.712L396.623 277.841L397.762 278.969V278.98H407.539Z" fill="#DCDFFF"/>
<path d="M397.5 266.633L396.371 265.494L395.232 266.633V276.42H395.242L396.361 277.548L397.5 276.42H397.51V266.633H397.5Z" fill="#DCDFFF"/>
<path d="M410.018 266.633L408.889 265.494L407.75 266.633V276.42H407.761L408.879 277.548L410.018 276.42H410.028V266.633H410.018Z" fill="#DCDFFF"/>
<path opacity="0.4" d="M407.539 266.29L408.678 265.161L407.539 264.022H397.762V264.032L396.623 265.151L397.762 266.29V266.3H407.539V266.29Z" fill="#DCDFFF"/>
<path d="M424.522 253.943L423.393 252.804L422.254 253.943H422.244V253.953V263.73H422.254L423.383 264.858L424.512 263.73H424.522V253.953V253.943Z" fill="#DCDFFF"/>
<path d="M437.04 253.943L435.901 252.804L434.773 253.943H434.762V253.953V263.73H434.773L435.901 264.858L437.03 263.73H437.04V253.953V253.943Z" fill="#DCDFFF"/>
<path d="M434.561 253.61L435.7 252.471L434.561 251.332H434.551H424.774L423.645 252.471L424.774 253.6V253.61H434.561Z" fill="#DCDFFF"/>
<path d="M434.561 278.98L435.7 277.851L434.561 276.712V276.702H434.551H424.774V276.712L423.645 277.841L424.774 278.969V278.98H434.561Z" fill="#DCDFFF"/>
<path d="M424.522 266.633L423.393 265.494L422.254 266.633H422.244V276.42H422.254L423.383 277.548L424.512 276.42H424.522V266.633Z" fill="#DCDFFF"/>
<path d="M437.04 266.633L435.901 265.494L434.773 266.633H434.762V276.42H434.773L435.901 277.548L437.03 276.42H437.04V266.633Z" fill="#DCDFFF"/>
<path opacity="0.4" d="M434.561 266.29L435.7 265.161L434.561 264.022H434.551H424.774V264.032L423.645 265.151L424.774 266.29V266.3H434.561V266.29Z" fill="#DCDFFF"/>
<path d="M441.858 253.943L440.72 252.804L439.591 253.943H439.581V253.953V263.73H439.591L440.72 264.858L441.848 263.73H441.858V253.953V253.943Z" fill="#DCDFFF"/>
<path d="M454.367 253.943L453.238 252.804L452.099 253.943V253.953V263.73H452.109L453.238 264.858L454.367 263.73H454.377V253.953V253.943H454.367Z" fill="#DCDFFF"/>
<path d="M451.897 253.61L453.036 252.471L451.897 251.332H451.887H442.111L440.982 252.471L442.111 253.6V253.61H451.887H451.897Z" fill="#DCDFFF"/>
<path d="M451.897 278.98L453.036 277.851L451.897 276.712V276.702H451.887H442.111V276.712L440.982 277.841L442.111 278.969V278.98H451.887H451.897Z" fill="#DCDFFF"/>
<path d="M441.858 266.633L440.72 265.494L439.591 266.633H439.581V276.42H439.591L440.72 277.548L441.848 276.42H441.858V266.633Z" fill="#DCDFFF"/>
<path d="M454.367 266.633L453.238 265.494L452.099 266.633V276.42H452.109L453.238 277.548L454.367 276.42H454.377V266.633H454.367Z" fill="#DCDFFF"/>
<path opacity="0.4" d="M451.897 266.29L453.036 265.161L451.897 264.022H451.887H442.111V264.032L440.982 265.151L442.111 266.29V266.3H451.887H451.897V266.29Z" fill="#DCDFFF"/>
</g>
<defs>
<filter id="filter0_d_2054_193" x="0.261475" y="0.220215" width="520.763" height="346.779" filterUnits="userSpaceOnUse" color-interpolation-filters="sRGB">
<feFlood flood-opacity="0" result="BackgroundImageFix"/>
<feColorMatrix in="SourceAlpha" type="matrix" values="0 0 0 0 0 0 0 0 0 0 0 0 0 0 0 0 0 0 127 0" result="hardAlpha"/>
<feOffset/>
<feGaussianBlur stdDeviation="20"/>
<feComposite in2="hardAlpha" operator="out"/>
<feColorMatrix type="matrix" values="0 0 0 0 1 0 0 0 0 1 0 0 0 0 1 0 0 0 0.3 0"/>
<feBlend mode="normal" in2="BackgroundImageFix" result="effect1_dropShadow_2054_193"/>
<feBlend mode="normal" in="SourceGraphic" in2="effect1_dropShadow_2054_193" result="shape"/>
</filter>
<linearGradient id="paint0_linear_2054_193" x1="112.621" y1="52.2175" x2="394.462" y2="205.274" gradientUnits="userSpaceOnUse">
<stop stop-color="#616182"/>
<stop offset="1" stop-color="#2E2E36"/>
</linearGradient>
<linearGradient id="paint1_linear_2054_193" x1="261.5" y1="253.717" x2="261.5" y2="294.228" gradientUnits="userSpaceOnUse">
<stop stop-color="#9D8CD5"/>
<stop offset="1" stop-color="#BDBAF8"/>
</linearGradient>
<linearGradient id="paint2_linear_2054_193" x1="355.046" y1="273.038" x2="475.798" y2="273.038" gradientUnits="userSpaceOnUse">
<stop stop-color="#C2B6F5"/>
<stop offset="1" stop-color="#9C8DD6"/>
</linearGradient>
</defs>
</svg>
