<svg width="804" height="522" viewBox="0 0 804 522" fill="none" xmlns="http://www.w3.org/2000/svg">
<g filter="url(#filter0_d_2321_386)">
<rect x="23.9844" y="31.4932" width="38.3433" height="475.934" fill="url(#paint0_linear_2321_386)"/>
<rect x="62.3262" y="31.4932" width="38.3433" height="475.934" fill="url(#paint1_linear_2321_386)"/>
<rect x="100.67" y="31.4932" width="38.3433" height="475.934" fill="url(#paint2_linear_2321_386)"/>
<rect x="139.014" y="31.4932" width="38.3433" height="475.934" fill="url(#paint3_linear_2321_386)"/>
<rect x="666.836" y="31.4932" width="38.3433" height="475.934" fill="url(#paint4_linear_2321_386)"/>
<rect x="177.357" y="31.4932" width="38.3433" height="475.934" fill="url(#paint5_linear_2321_386)"/>
<rect x="705.182" y="31.4932" width="38.3433" height="475.934" fill="url(#paint6_linear_2321_386)"/>
<rect x="215.699" y="31.4932" width="38.3433" height="475.934" fill="url(#paint7_linear_2321_386)"/>
<rect x="743.523" y="31.4932" width="38.3433" height="475.934" fill="url(#paint8_linear_2321_386)"/>
<rect x="10.2969" y="12.5425" width="782.816" height="14.9133" rx="7.45664" fill="#0A266E"/>
<rect x="33.584" y="6.32031" width="17.7891" height="36.0489" rx="8.89453" fill="#4662AA"/>
<rect x="72.6035" y="6.32031" width="17.7891" height="36.0489" rx="8.89453" fill="#4662AA"/>
<rect x="111.623" y="6.32031" width="17.7891" height="36.0489" rx="8.89453" fill="#4662AA"/>
<rect x="150.643" y="6.32031" width="17.7891" height="36.0489" rx="8.89453" fill="#4662AA"/>
<rect x="676.439" y="6.32031" width="17.7891" height="36.0489" rx="8.89453" fill="#4662AA"/>
<rect x="189.662" y="6.32031" width="17.7891" height="36.0489" rx="8.89453" fill="#4662AA"/>
<rect x="715.459" y="6.32031" width="17.7891" height="36.0489" rx="8.89453" fill="#4662AA"/>
<rect x="228.682" y="6.32031" width="17.7891" height="36.0489" rx="8.89453" fill="#4662AA"/>
<rect x="754.479" y="6.32031" width="17.7891" height="36.0489" rx="8.89453" fill="#4662AA"/>
</g>
<defs>
<filter id="filter0_d_2321_386" x="0.296875" y="0.320312" width="802.816" height="521.107" filterUnits="userSpaceOnUse" color-interpolation-filters="sRGB">
<feFlood flood-opacity="0" result="BackgroundImageFix"/>
<feColorMatrix in="SourceAlpha" type="matrix" values="0 0 0 0 0 0 0 0 0 0 0 0 0 0 0 0 0 0 127 0" result="hardAlpha"/>
<feOffset dy="4"/>
<feGaussianBlur stdDeviation="5"/>
<feComposite in2="hardAlpha" operator="out"/>
<feColorMatrix type="matrix" values="0 0 0 0 0.434678 0 0 0 0 0.498447 0 0 0 0 0.709679 0 0 0 0.5 0"/>
<feBlend mode="normal" in2="BackgroundImageFix" result="effect1_dropShadow_2321_386"/>
<feBlend mode="normal" in="SourceGraphic" in2="effect1_dropShadow_2321_386" result="shape"/>
</filter>
<linearGradient id="paint0_linear_2321_386" x1="43.156" y1="31.4932" x2="43.156" y2="507.427" gradientUnits="userSpaceOnUse">
<stop stop-color="#778DD7"/>
<stop offset="1" stop-color="#5A6FA9"/>
</linearGradient>
<linearGradient id="paint1_linear_2321_386" x1="81.4978" y1="31.4932" x2="81.4978" y2="507.427" gradientUnits="userSpaceOnUse">
<stop stop-color="#D9E0FA"/>
<stop offset="1" stop-color="#BBC6EE"/>
</linearGradient>
<linearGradient id="paint2_linear_2321_386" x1="119.842" y1="31.4932" x2="119.842" y2="507.427" gradientUnits="userSpaceOnUse">
<stop stop-color="#778DD7"/>
<stop offset="1" stop-color="#5A6FA9"/>
</linearGradient>
<linearGradient id="paint3_linear_2321_386" x1="158.185" y1="31.4932" x2="158.185" y2="507.427" gradientUnits="userSpaceOnUse">
<stop stop-color="#D9E0FA"/>
<stop offset="1" stop-color="#BBC6EE"/>
</linearGradient>
<linearGradient id="paint4_linear_2321_386" x1="686.008" y1="31.4932" x2="686.008" y2="507.427" gradientUnits="userSpaceOnUse">
<stop stop-color="#778DD7"/>
<stop offset="1" stop-color="#5A6FA9"/>
</linearGradient>
<linearGradient id="paint5_linear_2321_386" x1="196.529" y1="31.4932" x2="196.529" y2="507.427" gradientUnits="userSpaceOnUse">
<stop stop-color="#778DD7"/>
<stop offset="1" stop-color="#5A6FA9"/>
</linearGradient>
<linearGradient id="paint6_linear_2321_386" x1="724.353" y1="31.4932" x2="724.353" y2="507.427" gradientUnits="userSpaceOnUse">
<stop stop-color="#D9E0FA"/>
<stop offset="1" stop-color="#BBC6EE"/>
</linearGradient>
<linearGradient id="paint7_linear_2321_386" x1="234.871" y1="31.4932" x2="234.871" y2="507.427" gradientUnits="userSpaceOnUse">
<stop stop-color="#D9E0FA"/>
<stop offset="1" stop-color="#BBC6EE"/>
</linearGradient>
<linearGradient id="paint8_linear_2321_386" x1="762.695" y1="31.4932" x2="762.695" y2="507.427" gradientUnits="userSpaceOnUse">
<stop stop-color="#778DD7"/>
<stop offset="1" stop-color="#5A6FA9"/>
</linearGradient>
</defs>
</svg>
