<svg width="1945" height="1012" viewBox="0 0 1945 1012" fill="none" xmlns="http://www.w3.org/2000/svg">
<g filter="url(#filter0_f_2420_749)">
<path d="M449.826 853.743L231.968 284.505L357.913 128.528L1875.1 853.743H449.826Z" fill="url(#paint0_linear_2420_749)" fill-opacity="0.5"/>
</g>
<path d="M449.826 853.743L231.968 284.505L357.913 128.528L1875.1 853.743H449.826Z" fill="url(#paint1_linear_2420_749)" fill-opacity="0.8"/>
<rect x="201.505" y="123.683" width="11.1416" height="46.8813" rx="5.5708" transform="rotate(129.099 201.505 123.683)" fill="black"/>
<rect x="177.343" y="97.4551" width="12.4586" height="322.622" transform="rotate(33.333 177.343 97.4551)" fill="black"/>
<rect x="18.333" y="307.158" width="12.4586" height="704.473" fill="black"/>
<path d="M269.753 134.648L219.171 196.891L188.436 171.914C171.248 157.946 168.637 132.69 182.605 115.502C196.573 98.314 221.83 95.7036 239.018 109.671L269.753 134.648Z" fill="url(#paint2_linear_2420_749)"/>
<circle cx="288.183" cy="201.888" r="41.2473" transform="rotate(129.099 288.183 201.888)" fill="white"/>
<path fill-rule="evenodd" clip-rule="evenodd" d="M218.921 196.654C212.79 210.876 213.616 253.93 231.983 284.748L263.583 245.863L295.183 206.978L295.183 206.977L326.567 168.359L358.653 128.875C324.61 117.348 281.979 125.737 269.167 134.825L243.498 166.412L218.921 196.654Z" fill="#100C0A"/>
<defs>
<filter id="filter0_f_2420_749" x="162.468" y="59.0283" width="1782.13" height="864.215" filterUnits="userSpaceOnUse" color-interpolation-filters="sRGB">
<feFlood flood-opacity="0" result="BackgroundImageFix"/>
<feBlend mode="normal" in="SourceGraphic" in2="BackgroundImageFix" result="shape"/>
<feGaussianBlur stdDeviation="34.75" result="effect1_foregroundBlur_2420_749"/>
</filter>
<linearGradient id="paint0_linear_2420_749" x1="272.074" y1="199.626" x2="1328.08" y2="853.743" gradientUnits="userSpaceOnUse">
<stop stop-color="#FFB5AC" stop-opacity="0.6"/>
<stop offset="1" stop-color="#FFEADF" stop-opacity="0"/>
</linearGradient>
<linearGradient id="paint1_linear_2420_749" x1="272.074" y1="199.626" x2="1328.08" y2="853.743" gradientUnits="userSpaceOnUse">
<stop stop-color="white" stop-opacity="0.6"/>
<stop offset="1" stop-color="white" stop-opacity="0"/>
</linearGradient>
<linearGradient id="paint2_linear_2420_749" x1="238.825" y1="109.514" x2="188.243" y2="171.757" gradientUnits="userSpaceOnUse">
<stop stop-color="#281F49"/>
<stop offset="1" stop-color="#120B27"/>
</linearGradient>
</defs>
</svg>
